<svg height="512pt" viewBox="0 0 512 512" width="512pt" xmlns="http://www.w3.org/2000/svg"><path d="m512 256c0 141.386719-114.613281 256-256 256s-256-114.613281-256-256 114.613281-256 256-256 256 114.613281 256 256zm0 0" fill="#4a7aff"/><path d="m512 256c0-32.546875-6.089844-63.671875-17.164062-92.308594l-50.730469-50.730468-312.277344 280.980468 117.980469 117.980469c2.058594.046875 4.121094.078125 6.191406.078125 141.386719 0 256-114.613281 256-256zm0 0" fill="#0053bf"/><path d="m134.003906 100.351562c16.3125-3.109374 32.820313 5.914063 43.046875 24.644532 6.351563 11.640625 10.144531 26.359375 10.144531 42.371094 0 37.671874-21.007812 38.015624-46.921874 38.015624-25.914063 0-72.378907-54.75-72.378907-92.421874zm0 0" fill="#ff8257"/><path d="m377.996094 100.351562c-16.3125-3.109374-32.820313 5.914063-43.046875 24.644532-6.351563 11.640625-10.144531 26.359375-10.144531 42.371094 0 37.671874 21.007812 38.015624 46.921874 38.015624 25.914063 0 72.378907-54.75 72.378907-92.421874zm0 0" fill="#ff7045"/><path d="m430.226562 271.738281c0 96.222657-78.003906 174.230469-174.226562 174.230469s-174.226562-78.007812-174.226562-174.230469c0-96.222656 78.003906-174.226562 174.226562-174.226562s174.226562 78.003906 174.226562 174.226562zm0 0" fill="#ffa480"/><path d="m256 97.511719c-.136719 0-.269531.003906-.40625.003906v348.445313c.136719 0 .269531.007812.40625.007812 96.222656 0 174.226562-78.007812 174.226562-174.230469 0-96.222656-78.003906-174.226562-174.226562-174.226562zm0 0" fill="#ff936b"/><path d="m339.109375 314.125c0 45.898438-37.210937 83.109375-83.109375 83.109375s-83.109375-37.210937-83.109375-83.109375c0-45.902344 37.210937-83.109375 83.109375-83.109375s83.109375 37.207031 83.109375 83.109375zm0 0" fill="#ff8257"/><path d="m256 231.015625c-.136719 0-.269531.007813-.40625.007813v166.199218c.136719.003906.269531.011719.40625.011719 45.898438 0 83.109375-37.210937 83.109375-83.109375 0-45.902344-37.210937-83.109375-83.109375-83.109375zm0 0" fill="#ff7045"/><path d="m194.742188 228.382812c0 7.519532-6.097657 13.617188-13.617188 13.617188s-13.617188-6.097656-13.617188-13.617188c0-7.519531 6.097657-13.617187 13.617188-13.617187s13.617188 6.097656 13.617188 13.617187zm0 0" fill="#595959"/><path d="m344.492188 228.382812c0 7.519532-6.097657 13.617188-13.617188 13.617188s-13.617188-6.097656-13.617188-13.617188c0-7.519531 6.097657-13.617187 13.617188-13.617187s13.617188 6.097656 13.617188 13.617187zm0 0" fill="#474747"/><path d="m244.359375 314.125c0 14.152344-11.476563 25.628906-25.628906 25.628906-14.15625 0-25.632813-11.476562-25.632813-25.628906 0-14.15625 11.476563-25.632812 25.632813-25.632812 14.152343 0 25.628906 11.476562 25.628906 25.632812zm0 0" fill="#f24500"/><path d="m318.902344 314.125c0 14.152344-11.476563 25.628906-25.632813 25.628906-14.152343 0-25.628906-11.476562-25.628906-25.628906 0-14.15625 11.476563-25.632812 25.628906-25.632812 14.15625 0 25.632813 11.476562 25.632813 25.632812zm0 0" fill="#d13400"/></svg>